<svg width="172" height="69" fill="none" xmlns="http://www.w3.org/2000/svg"><g clip-path="url(#clip0_12_352)"><path d="M36.783 15.314V7.658c0-.845-.686-1.53-1.532-1.53h-1.532V1.533c0-.846-.686-1.531-1.532-1.531-2.169 0-5.49-.167-9.39 2.168-2.423-.721-4.137-.637-5.93-.637-.846 0-1.532.685-1.532 1.53v3.063h-1.532c-.846 0-1.532.686-1.532 1.531v7.656c0 6.236 4.687 11.398 10.724 12.154v20a1.532 1.532 0 003.064 0V42.11h2.298c4.646 0 8.426-3.778 8.426-8.422v-2.297c0-.845-.686-1.53-1.532-1.53h-3.83a8.39 8.39 0 00-5.362 1.93v-4.324c6.029-.746 10.724-5.882 10.724-12.153zm-3.064 0a9.173 9.173 0 01-3.111 6.874c.03-.246.047-.495.047-.75 0-3.877-1.45-7.421-3.836-10.122a12.235 12.235 0 016.9-2.126v6.124zm-3.064-12.25v3.372a15.28 15.28 0 00-.843.197 15.324 15.324 0 00-3.365-2.825 12.243 12.243 0 014.208-.743zM18.4 4.597c3.044 0 6 1.11 8.298 3.233a15.28 15.28 0 00-2.174 1.365A15.26 15.26 0 0018.4 6.436v-1.84zm-3.064 10.718V9.19c6.758 0 12.256 5.495 12.256 12.249a3.066 3.066 0 01-3.144 3.06c-5.382-.132-9.112-4.406-9.112-9.185zm16.086 17.609h2.298v.765a5.367 5.367 0 01-5.362 5.36H26.06v-.766a5.367 5.367 0 015.362-5.36z" fill="#fff"/></g><path d="M54.888 22.781H48.43v4.06h7.628V30H44.324V12.965h11.758v3.171H48.43v3.592h6.458v3.053zm9.511-4.153l2.785-5.662h4.691l-4.761 8.447L72.004 30h-4.738l-2.867-5.768L61.533 30h-4.727l4.879-8.587-4.75-8.447h4.68l2.784 5.662zm13.372 5.592V30h-4.106V12.965h6.797c1.303 0 2.453.242 3.451.726 1.007.476 1.783 1.158 2.329 2.047.553.882.83 1.884.83 3.007 0 1.661-.596 2.991-1.79 3.99-1.185.99-2.815 1.485-4.89 1.485h-2.62zm0-3.17h2.691c.796 0 1.4-.199 1.813-.597.422-.398.632-.96.632-1.684 0-.796-.214-1.432-.643-1.907-.43-.476-1.014-.718-1.755-.726H77.77v4.914zm15.923 5.791h7.148V30H89.587V12.965h4.107v13.876zm22.872-5.007c0 1.661-.309 3.131-.925 4.41-.616 1.28-1.493 2.266-2.632 2.96-1.131.687-2.422 1.03-3.873 1.03-1.45 0-2.737-.332-3.86-.995-1.124-.67-2.001-1.626-2.633-2.866-.624-1.24-.951-2.663-.983-4.27v-.96c0-1.669.305-3.139.913-4.41.616-1.28 1.494-2.266 2.632-2.96 1.147-.694 2.449-1.041 3.908-1.041 1.443 0 2.73.343 3.861 1.03 1.131.685 2.008 1.664 2.632 2.936.632 1.263.952 2.714.96 4.352v.784zm-4.177-.714c0-1.693-.285-2.976-.854-3.85-.562-.88-1.369-1.321-2.422-1.321-2.059 0-3.147 1.544-3.264 4.633l-.012 1.252c0 1.669.277 2.952.831 3.849.554.897 1.376 1.345 2.468 1.345 1.038 0 1.837-.44 2.399-1.322.561-.881.846-2.148.854-3.802v-.784zm12.939 2.866h-2.223V30h-4.107V12.965h6.704c2.02 0 3.6.449 4.739 1.346 1.138.897 1.708 2.164 1.708 3.802 0 1.186-.242 2.169-.726 2.949-.475.78-1.224 1.411-2.246 1.895l3.557 6.867V30h-4.399l-3.007-6.014zm-2.223-3.17h2.597c.78 0 1.365-.203 1.755-.608.398-.414.597-.987.597-1.72s-.199-1.307-.597-1.72c-.398-.421-.983-.632-1.755-.632h-2.597v4.68zm22.404 1.965h-6.458v4.06h7.628V30h-11.735V12.965h11.758v3.171h-7.651v3.592h6.458v3.053zM48.699 49h-4.095V31.965H48.7V49zm17.397 0h-4.083l-6.037-10.6V49h-4.107V31.965h4.107L62 42.566v-10.6h4.095V49zm2.912 0V31.965h5.487c1.506 0 2.859.344 4.06 1.03 1.201.679 2.137 1.642 2.808 2.89.678 1.24 1.022 2.632 1.03 4.177v.783c0 1.56-.332 2.96-.995 4.2a7.225 7.225 0 01-2.784 2.902c-1.194.694-2.528 1.045-4.002 1.053h-5.604zm4.107-13.864v10.705h1.427c1.178 0 2.083-.417 2.714-1.252.632-.842.948-2.09.948-3.744v-.737c0-1.645-.316-2.886-.948-3.72-.631-.835-1.552-1.252-2.76-1.252h-1.381zm26.124 5.698c0 1.661-.308 3.131-.924 4.41-.616 1.28-1.494 2.266-2.632 2.96-1.131.687-2.422 1.03-3.873 1.03-1.45 0-2.738-.331-3.86-.995-1.124-.67-2.001-1.626-2.633-2.866-.624-1.24-.952-2.663-.983-4.27v-.96c0-1.669.304-3.139.913-4.41.616-1.28 1.493-2.266 2.632-2.96 1.146-.694 2.45-1.042 3.908-1.042 1.443 0 2.73.344 3.86 1.03 1.131.686 2.009 1.665 2.633 2.937.632 1.263.951 2.714.96 4.352v.784zm-4.177-.714c0-1.692-.284-2.975-.854-3.85-.561-.88-1.368-1.321-2.421-1.321-2.06 0-3.148 1.544-3.265 4.633l-.011 1.252c0 1.669.277 2.952.83 3.849.554.897 1.377 1.345 2.469 1.345 1.037 0 1.837-.44 2.398-1.322.562-.881.847-2.149.855-3.802v-.784zM115.9 49h-4.083l-6.037-10.6V49h-4.107V31.965h4.107l6.025 10.6v-10.6h4.095V49zm13.477-7.219h-6.458v4.06h7.628V49h-11.735V31.965h11.758v3.171h-7.651v3.592h6.458v3.053zm11.944 2.691c0-.6-.214-1.068-.643-1.404-.421-.335-1.166-.682-2.235-1.04-1.068-.36-1.942-.707-2.62-1.042-2.208-1.084-3.311-2.574-3.311-4.47 0-.943.273-1.774.819-2.491.553-.726 1.333-1.287 2.34-1.685 1.006-.406 2.137-.609 3.392-.609 1.225 0 2.321.219 3.288.656.975.437 1.732 1.06 2.27 1.872.538.803.807 1.723.807 2.76h-4.095c0-.694-.214-1.232-.643-1.614-.421-.382-.995-.573-1.72-.573-.733 0-1.314.164-1.743.491-.422.32-.632.73-.632 1.229 0 .437.234.834.702 1.193.468.351 1.291.718 2.468 1.1 1.178.374 2.145.78 2.902 1.217 1.841 1.06 2.761 2.523 2.761 4.387 0 1.49-.562 2.66-1.685 3.51-1.123.85-2.663 1.275-4.621 1.275-1.381 0-2.632-.246-3.756-.737-1.115-.5-1.957-1.178-2.527-2.036-.561-.866-.842-1.86-.842-2.983h4.118c0 .912.234 1.587.702 2.024.476.429 1.244.643 2.305.643.679 0 1.213-.144 1.603-.433.398-.296.596-.71.596-1.24zM152.224 49h-4.095V31.965h4.095V49zm13.056-3.182h-5.628L158.67 49h-4.388l6.248-17.035h3.861L170.685 49h-4.411l-.994-3.182zm-4.645-3.17h3.662l-1.837-5.91-1.825 5.91z" fill="#fff"/><defs><clipPath id="clip0_12_352"><path fill="#fff" transform="translate(.014)" d="M0 0h49.026v49H0z"/></clipPath></defs></svg>